<?xml version="1.0" standalone="no"?>
<!DOCTYPE svg PUBLIC "-//W3C//DTD SVG 20010904//EN"
 "http://www.w3.org/TR/2001/REC-SVG-20010904/DTD/svg10.dtd">
<svg version="1.0" xmlns="http://www.w3.org/2000/svg"
 width="1516.000000pt" height="2959.000000pt" viewBox="0 0 1516.000000 2959.000000"
 preserveAspectRatio="xMidYMid meet">

<g transform="translate(0.000000,2959.000000) scale(0.100000,-0.100000)"
fill="#000000" stroke="none">
<path d="M7417 29522 c-15 -9 -30 -25 -33 -34 -6 -20 11 -513 26 -758 6 -85
10 -202 10 -260 0 -58 9 -260 20 -450 38 -646 59 -1124 49 -1142 -16 -29 -67
-22 -201 27 -68 25 -132 49 -143 54 -11 5 -67 25 -125 45 -58 19 -123 42 -145
50 -68 26 -144 17 -167 -18 -13 -20 -8 -82 11 -147 11 -35 25 -93 31 -129 6
-36 22 -105 35 -155 13 -49 40 -160 60 -245 20 -85 43 -180 50 -210 8 -30 24
-98 35 -150 11 -52 28 -135 39 -185 11 -49 27 -126 36 -170 9 -44 25 -111 35
-150 40 -149 229 -981 245 -1080 4 -22 18 -78 31 -125 13 -47 28 -116 35 -155
13 -83 59 -186 96 -214 49 -39 96 -25 141 42 55 82 55 76 38 627 -8 278 -18
609 -22 735 -3 127 -8 232 -9 235 -2 3 -5 126 -6 273 -4 291 -5 287 52 287 14
0 52 -9 85 -21 32 -11 115 -36 184 -55 69 -19 139 -39 155 -44 130 -39 183
-53 203 -53 35 1 72 41 72 77 0 37 -79 406 -137 641 -14 55 -31 132 -39 170
-8 39 -23 99 -33 135 -11 36 -40 160 -66 275 -25 116 -60 271 -76 345 -16 74
-39 171 -50 215 -11 44 -27 114 -35 155 -8 41 -21 95 -28 120 -8 25 -22 79
-30 120 -9 41 -25 109 -35 150 -11 41 -45 192 -76 335 -31 143 -67 305 -80
360 -13 55 -38 161 -56 235 -17 74 -36 151 -40 171 -19 78 -81 109 -142 71z"/>
<path d="M3926 27029 c-15 -11 -26 -31 -26 -44 0 -25 71 -166 265 -525 87
-161 280 -529 308 -585 11 -22 45 -85 76 -140 31 -55 71 -130 89 -167 17 -36
72 -140 122 -230 88 -159 109 -220 78 -230 -7 -2 -155 0 -328 4 -339 9 -400 7
-436 -17 -45 -29 -33 -67 48 -153 39 -42 79 -85 87 -94 9 -10 53 -57 98 -105
217 -234 401 -432 437 -473 23 -24 77 -82 122 -130 44 -47 95 -103 113 -125
19 -22 70 -79 115 -126 45 -47 123 -131 174 -187 123 -134 193 -172 271 -147
33 10 44 70 26 139 -17 66 -33 97 -114 226 -33 52 -78 127 -102 165 -23 39
-63 103 -88 143 -127 203 -221 365 -221 381 0 26 51 32 293 37 138 2 273 6
299 9 62 5 98 29 98 64 0 27 -18 53 -235 346 -45 61 -138 186 -206 279 -68 93
-151 205 -184 249 -33 44 -80 110 -105 146 -25 36 -81 114 -125 172 -199 265
-243 324 -280 379 -22 32 -67 94 -100 138 -33 44 -107 144 -165 223 -58 79
-125 170 -150 204 -25 33 -58 80 -74 103 -62 91 -124 115 -180 71z"/>
<path d="M9454 26850 c-44 -18 -63 -72 -74 -213 -11 -139 -35 -410 -51 -562
-17 -167 -28 -309 -35 -425 -5 -104 -4 -118 15 -147 44 -69 157 -65 193 8 11
23 22 96 33 229 16 187 28 304 45 455 18 157 42 546 36 579 -13 67 -92 105
-162 76z"/>
<path d="M11797 26708 c-13 -18 -43 -69 -67 -113 -24 -44 -51 -91 -60 -105
-10 -14 -38 -63 -62 -110 -25 -47 -61 -114 -82 -150 -79 -137 -181 -317 -209
-370 -15 -30 -52 -95 -81 -145 -67 -114 -179 -312 -221 -390 -18 -33 -55 -98
-82 -145 -28 -47 -67 -118 -88 -158 -41 -82 -79 -112 -99 -78 -6 10 -49 77
-94 150 -46 72 -93 149 -103 171 -53 110 -187 304 -216 311 -66 17 -84 -17
-148 -291 -22 -92 -68 -268 -105 -400 -5 -16 -23 -91 -41 -165 -18 -74 -42
-166 -55 -205 -12 -38 -30 -101 -39 -140 -34 -145 -48 -203 -75 -295 -112
-386 -120 -548 -29 -571 13 -3 36 -2 51 3 28 10 128 109 128 127 0 10 118 261
229 486 27 55 76 157 109 227 62 131 88 162 119 137 8 -7 76 -105 150 -218 75
-114 147 -223 161 -244 57 -86 128 -76 164 24 68 189 95 262 120 316 15 34 28
65 28 69 0 16 94 259 105 274 7 8 15 26 18 40 12 55 62 181 143 367 8 17 14
36 14 41 0 10 47 139 75 207 7 17 27 68 45 115 18 47 55 141 83 210 27 69 62
161 78 205 28 80 49 134 74 190 7 17 36 95 64 173 29 79 60 161 71 182 25 48
70 186 70 212 0 27 -26 74 -45 82 -40 15 -74 6 -98 -26z"/>
<path d="M8890 25946 c-58 -21 -76 -69 -84 -232 -4 -77 -14 -218 -22 -314 -14
-174 -29 -376 -59 -795 -8 -121 -19 -263 -25 -315 -13 -133 -35 -426 -35 -480
0 -111 113 -174 188 -104 36 33 45 73 57 254 5 85 14 200 20 255 5 55 15 174
21 265 25 376 29 440 39 545 23 249 32 363 35 410 1 28 8 133 15 235 12 173
12 188 -5 223 -18 38 -59 68 -92 66 -10 0 -34 -6 -53 -13z"/>
<path d="M6134 25456 c-72 -31 -80 -87 -34 -230 43 -133 79 -162 171 -136 77
22 92 101 44 235 -32 91 -47 112 -92 131 -39 17 -49 17 -89 0z"/>
<path d="M6344 24806 c-36 -16 -73 -64 -76 -98 -1 -23 10 -62 61 -223 16 -49
43 -137 60 -195 17 -58 42 -141 56 -185 13 -44 29 -102 35 -128 12 -57 46
-112 78 -127 45 -20 98 -12 130 20 16 16 32 40 36 54 4 15 -11 84 -40 182 -25
88 -56 197 -69 244 -13 47 -35 123 -50 170 -14 47 -35 113 -45 148 -23 77 -53
120 -96 138 -40 17 -41 17 -80 0z"/>
<path d="M795 24722 c-34 -7 -55 -33 -55 -68 0 -38 24 -59 115 -97 33 -14 114
-51 180 -82 134 -64 178 -71 206 -36 41 51 11 109 -72 140 -42 16 -176 76
-244 109 -58 28 -102 40 -130 34z"/>
<path d="M13601 24634 c-92 -50 -128 -69 -216 -119 -33 -19 -109 -60 -170 -91
-60 -31 -114 -60 -120 -64 -17 -14 -222 -129 -283 -159 -63 -31 -111 -57 -170
-94 -21 -14 -81 -46 -133 -72 -52 -26 -125 -65 -162 -88 -61 -36 -71 -39 -94
-28 l-26 12 6 290 c5 285 5 290 -16 309 -11 11 -28 20 -37 20 -18 0 -79 -62
-255 -260 -71 -80 -152 -170 -181 -200 -56 -60 -176 -195 -239 -268 -22 -26
-94 -106 -160 -178 -303 -329 -344 -381 -345 -435 0 -35 20 -50 73 -56 31 -3
53 1 84 19 37 20 408 344 558 487 28 26 67 61 88 76 36 27 39 27 55 11 15 -14
18 -49 22 -257 5 -223 6 -242 24 -255 38 -27 78 -13 171 63 33 27 120 92 215
163 33 25 85 65 115 90 29 25 73 59 97 77 24 18 66 49 93 70 28 20 124 92 215
160 91 68 179 134 195 148 34 27 222 169 265 200 15 11 72 54 125 95 53 41
118 91 144 110 77 56 123 92 179 138 43 37 52 50 52 76 0 70 -51 73 -169 10z"/>
<path d="M1732 24333 c-7 -3 -19 -17 -27 -32 -13 -27 -12 -30 18 -58 28 -27
58 -46 179 -113 68 -38 366 -216 393 -235 17 -12 55 -34 85 -49 30 -16 76 -43
102 -62 26 -18 71 -45 100 -60 29 -15 82 -46 118 -69 36 -23 112 -69 170 -102
127 -73 216 -127 235 -143 32 -26 16 -47 -77 -101 -51 -30 -100 -57 -110 -61
-9 -4 -38 -22 -65 -41 -26 -18 -82 -52 -124 -75 -118 -65 -149 -101 -115 -134
13 -14 128 -45 246 -66 54 -10 141 -26 230 -43 25 -5 74 -15 110 -23 36 -7
117 -24 180 -36 63 -12 212 -42 330 -67 118 -25 240 -49 270 -54 30 -4 91 -15
135 -24 188 -37 236 -36 267 6 20 26 20 27 0 65 -31 58 -84 89 -227 129 -33
10 -134 41 -225 71 -151 49 -270 85 -392 119 -61 17 -68 22 -68 50 0 20 26 41
150 122 82 54 170 111 195 127 25 15 53 39 62 52 27 42 1 64 -149 124 -73 29
-154 63 -180 76 -26 13 -52 24 -59 24 -6 0 -25 6 -42 13 -51 22 -135 56 -242
99 -142 57 -288 119 -300 128 -5 3 -46 19 -90 34 -44 16 -117 46 -162 67 -46
21 -86 39 -91 39 -5 0 -69 25 -143 56 -74 31 -179 74 -234 96 -55 22 -104 43
-110 48 -5 4 -26 13 -45 18 -19 6 -79 29 -133 51 -92 38 -134 47 -165 34z"/>
<path d="M10708 23803 c-25 -28 -197 -374 -204 -410 -5 -26 -1 -37 19 -57 15
-14 36 -26 48 -26 32 0 84 61 121 143 18 39 57 119 86 176 28 58 52 115 52
128 0 53 -87 86 -122 46z"/>
<path d="M4505 23335 c-45 -44 -35 -76 49 -160 63 -65 78 -75 108 -75 43 0 68
25 68 69 0 27 -12 45 -62 98 -59 61 -103 93 -128 93 -6 0 -22 -11 -35 -25z"/>
<path d="M6495 23173 c-364 -23 -673 -98 -898 -219 -171 -92 -222 -114 -308
-135 -45 -11 -97 -28 -114 -39 -18 -11 -38 -20 -46 -20 -7 0 -29 -11 -48 -24
-20 -13 -70 -45 -111 -72 -89 -58 -183 -139 -341 -295 -63 -63 -144 -141 -180
-174 -167 -155 -384 -254 -604 -275 -178 -17 -239 -30 -375 -78 -160 -57 -347
-194 -470 -347 -111 -137 -202 -312 -260 -495 -18 -58 -40 -113 -49 -124 -16
-18 -56 -46 -174 -120 -80 -51 -215 -183 -293 -287 -64 -86 -172 -296 -192
-374 -26 -100 -31 -128 -47 -255 -19 -149 -17 -142 -45 -188 -46 -76 -133
-303 -163 -427 -40 -166 -46 -356 -17 -568 23 -167 95 -382 152 -456 25 -33
23 -95 -8 -172 -14 -35 -36 -109 -49 -164 -12 -55 -33 -140 -45 -190 -12 -49
-26 -109 -31 -133 -14 -66 -11 -282 5 -333 40 -130 253 -516 441 -799 183
-276 214 -333 230 -426 8 -44 15 -108 15 -144 0 -36 5 -96 11 -135 13 -94 23
-281 24 -442 0 -109 -3 -136 -16 -149 -15 -15 -18 -14 -39 8 -30 31 -60 80
-60 98 0 8 -11 37 -25 65 -13 27 -31 66 -40 85 -8 19 -29 60 -46 90 -17 30
-52 94 -78 142 -68 128 -181 315 -202 334 -11 10 -19 21 -19 25 0 19 -133 200
-253 344 -76 92 -252 257 -295 277 -23 11 -45 24 -48 29 -3 5 -14 9 -25 9 -11
0 -30 11 -42 24 -13 14 -61 37 -114 55 -82 28 -97 31 -133 21 -28 -8 -44 -19
-55 -40 -17 -33 -20 -126 -5 -180 14 -52 56 -168 74 -203 8 -18 22 -48 31 -67
8 -19 40 -73 70 -120 63 -97 115 -194 115 -215 0 -8 8 -19 17 -24 17 -8 108
-181 168 -316 15 -33 39 -87 55 -120 54 -116 69 -150 76 -180 4 -16 13 -39 20
-50 7 -11 29 -63 48 -115 20 -52 45 -115 55 -140 36 -83 71 -180 71 -193 0 -6
7 -25 15 -41 17 -32 54 -132 85 -231 48 -148 63 -193 80 -235 11 -25 22 -61
26 -80 4 -19 15 -51 25 -70 11 -19 19 -44 19 -55 0 -11 9 -36 19 -56 11 -20
25 -56 31 -80 7 -24 18 -51 25 -59 7 -8 19 -37 28 -65 15 -49 45 -129 73 -190
13 -30 42 -101 74 -185 9 -25 22 -56 28 -70 30 -67 65 -160 77 -202 13 -46 20
-58 81 -153 37 -58 120 -153 184 -211 198 -178 321 -289 438 -399 40 -38 82
-75 95 -83 12 -9 45 -36 72 -61 123 -112 209 -187 224 -195 35 -20 409 -367
610 -566 125 -123 368 -394 414 -460 47 -69 150 -227 187 -290 9 -14 31 -50
51 -80 46 -72 96 -181 105 -228 4 -20 12 -48 19 -62 7 -14 18 -65 25 -115 6
-49 20 -137 30 -195 10 -58 24 -170 30 -250 7 -80 19 -185 27 -235 18 -107 20
-555 4 -870 -51 -977 -50 -903 -10 -1105 44 -222 56 -262 115 -385 61 -129
164 -286 273 -417 43 -51 80 -101 84 -111 3 -9 12 -17 18 -17 7 0 31 -18 54
-39 24 -22 63 -50 87 -63 l43 -23 1025 4 c564 2 1194 5 1400 8 206 2 780 8
1275 13 978 9 963 8 1046 66 73 50 223 228 332 393 52 78 156 280 178 346 22
66 11 406 -26 760 -8 77 -20 373 -26 660 -12 544 -6 805 26 1001 8 49 19 147
25 217 6 70 16 140 21 155 6 15 17 66 25 114 25 154 90 312 190 462 69 104 93
140 110 170 20 36 113 167 128 181 6 6 51 57 101 115 120 141 118 139 296 316
85 85 171 165 190 178 19 13 41 32 50 43 8 10 51 50 94 88 44 39 127 113 185
165 58 53 150 134 205 180 118 100 250 217 355 315 42 38 111 102 155 140 79
70 300 288 320 315 35 49 85 138 85 151 0 9 9 28 21 43 12 15 27 48 34 74 14
48 94 253 120 307 8 17 21 50 29 75 8 25 29 79 46 120 18 41 40 98 51 125 10
28 30 82 44 120 55 145 87 243 110 327 13 47 29 95 34 105 6 10 17 36 25 58 8
22 26 72 40 110 57 151 69 183 95 257 14 42 32 83 39 90 6 6 12 21 12 31 0 11
11 45 25 76 13 31 40 98 60 150 20 51 42 103 50 115 7 11 16 32 20 46 6 23 29
75 75 175 10 22 33 72 50 110 17 39 36 79 42 89 6 11 32 61 58 110 65 126 92
173 139 248 23 36 41 70 41 75 0 6 6 16 14 22 21 18 122 230 135 285 7 27 18
61 25 75 13 24 21 87 17 137 0 12 -15 36 -33 53 -25 24 -40 31 -72 31 -45 0
-192 -44 -216 -64 -8 -7 -42 -28 -75 -46 -33 -18 -64 -38 -70 -44 -5 -7 -20
-19 -33 -28 -13 -9 -51 -43 -85 -76 -261 -252 -440 -507 -687 -977 -14 -27
-31 -59 -37 -70 -24 -45 -121 -251 -127 -272 -8 -25 -27 -35 -47 -22 -30 18
-19 588 19 962 l18 169 41 36 c22 21 75 68 117 105 100 90 231 260 300 389 57
108 132 298 160 408 10 36 24 90 32 120 8 30 23 93 33 140 10 47 37 155 59
240 43 164 72 333 72 420 0 67 -25 235 -49 325 -69 265 -95 353 -107 373 -8
12 -12 27 -9 31 6 10 -33 120 -110 316 l-48 120 2 175 c2 166 0 181 -29 295
-33 125 -75 217 -165 355 -77 118 -219 275 -320 354 -27 21 -66 54 -85 73 -30
28 -163 121 -210 146 -68 36 -136 87 -141 108 -4 13 -8 56 -8 94 -2 113 -51
304 -91 350 -9 11 -27 40 -40 65 -76 152 -251 327 -405 406 -84 43 -125 76
-126 102 0 17 -43 99 -114 219 -36 61 -217 265 -254 287 -9 5 -50 37 -91 71
-301 245 -708 395 -1076 395 -101 0 -106 2 -180 51 -55 36 -275 133 -360 158
-110 32 -252 59 -439 82 -180 22 -611 6 -835 -31 -156 -26 -180 -26 -290 -2
-223 50 -515 66 -765 42 -178 -18 -471 -18 -510 -1 -16 7 -52 17 -80 21 -27 5
-81 16 -120 25 -106 24 -182 34 -390 50 -184 14 -213 15 -320 8z m310 -493
c191 -21 270 -32 335 -46 36 -9 88 -20 115 -26 217 -46 408 -143 550 -279 39
-36 80 -71 92 -78 61 -32 144 9 164 81 14 54 6 81 -47 151 -24 32 -44 65 -44
72 0 8 11 22 24 33 87 68 383 48 653 -43 121 -41 156 -42 323 -5 226 49 670
61 905 24 203 -32 232 -39 345 -86 93 -40 132 -63 195 -120 63 -57 129 -91
176 -91 20 0 72 6 115 13 234 37 578 -75 841 -274 176 -134 376 -389 418 -533
49 -168 -12 -306 -162 -363 -51 -19 -72 -22 -165 -17 -98 4 -124 10 -315 72
-114 37 -217 71 -228 75 -64 26 -200 44 -320 44 -113 0 -136 -3 -178 -21 -107
-50 -177 -124 -177 -187 0 -71 76 -135 144 -122 16 4 52 21 80 39 46 29 58 32
146 35 73 2 113 -2 175 -18 44 -12 96 -24 115 -27 19 -3 40 -9 45 -13 11 -9
169 -66 220 -80 17 -5 75 -25 130 -45 159 -57 222 -68 355 -62 112 5 183 21
240 55 14 8 66 57 116 108 119 122 164 139 232 88 69 -53 78 -127 35 -295
l-27 -106 28 -72 c32 -82 40 -89 221 -188 66 -36 143 -81 172 -99 28 -19 56
-34 61 -34 6 0 23 -13 39 -28 15 -16 42 -37 58 -47 59 -38 204 -166 257 -227
174 -202 223 -352 183 -567 -17 -92 -17 -100 0 -156 9 -33 30 -88 45 -122 16
-35 46 -102 66 -150 20 -49 40 -97 44 -108 88 -207 170 -501 189 -677 29 -259
2 -447 -91 -630 -27 -53 -55 -125 -62 -161 -21 -100 -34 -134 -94 -256 -81
-162 -144 -262 -205 -320 -62 -61 -112 -81 -205 -83 -69 -1 -87 2 -136 26 -37
18 -68 43 -88 70 -27 37 -29 47 -26 103 3 50 13 80 57 165 30 56 73 140 96
185 65 126 105 308 105 475 0 75 -24 315 -40 398 -27 141 -93 316 -175 465
-63 113 -115 184 -190 254 -47 44 -59 51 -95 51 -81 0 -130 -49 -130 -130 0
-34 7 -48 43 -88 174 -190 290 -469 323 -775 17 -164 15 -222 -16 -379 -18
-87 -30 -117 -105 -256 -108 -201 -127 -262 -126 -407 1 -95 -3 -121 -26 -188
-61 -178 -214 -288 -453 -326 -36 -6 -135 -11 -220 -11 -128 0 -162 -4 -195
-19 -43 -19 -128 -107 -152 -156 -32 -65 -141 -113 -232 -102 -60 7 -158 63
-204 117 -19 23 -49 79 -67 128 -19 48 -37 92 -42 98 -4 6 -14 30 -23 53 -36
102 -186 284 -309 373 -48 35 -196 107 -246 120 -177 46 -206 50 -310 44 -142
-7 -236 -29 -348 -82 -160 -75 -237 -137 -414 -335 -132 -148 -267 -209 -463
-209 -97 0 -164 15 -250 56 -88 41 -215 148 -251 211 -15 27 -33 55 -39 63 -7
8 -25 54 -40 102 -25 80 -27 97 -23 215 3 116 7 135 35 205 18 43 58 111 93
157 43 56 63 92 67 119 9 70 -48 142 -114 142 -44 0 -94 -22 -113 -50 -8 -12
-36 -50 -61 -84 -129 -172 -187 -394 -160 -612 21 -169 95 -348 186 -450 189
-212 348 -298 599 -326 236 -25 448 41 627 196 46 41 104 98 129 127 124 147
155 173 285 237 161 80 347 87 519 20 110 -43 180 -91 258 -176 77 -85 137
-198 163 -310 25 -101 17 -289 -15 -381 -44 -125 -136 -247 -247 -328 -66 -49
-183 -103 -278 -129 -177 -49 -425 -34 -575 34 -160 72 -262 161 -335 294 -42
76 -89 118 -132 118 -35 0 -113 -76 -113 -110 0 -29 29 -119 53 -166 27 -52
31 -97 10 -122 -16 -21 -36 -24 -223 -43 -317 -30 -660 -22 -950 22 -36 6 -96
14 -135 19 -114 15 -267 47 -315 66 -68 26 -237 125 -273 159 -18 17 -49 43
-69 58 -47 36 -136 146 -176 217 -48 87 -109 282 -123 396 -16 133 -1 287 36
369 14 32 25 62 25 68 0 17 79 147 126 207 44 56 188 187 257 234 21 15 85 51
143 82 59 32 112 68 124 84 21 30 26 83 11 123 -25 65 -147 89 -211 42 -19
-14 -39 -25 -45 -25 -6 0 -53 -28 -105 -62 -52 -35 -108 -70 -123 -78 -47 -27
-229 -213 -289 -296 -71 -99 -118 -193 -157 -314 -17 -52 -35 -108 -41 -125
-6 -16 -16 -83 -22 -147 -15 -148 2 -277 61 -457 54 -163 60 -214 32 -269 -17
-34 -29 -43 -63 -52 -35 -10 -51 -8 -107 11 -174 58 -293 132 -462 286 -55 51
-92 76 -122 84 -49 13 -138 5 -182 -17 -142 -71 -491 -175 -724 -215 -64 -11
-154 -27 -201 -35 -69 -13 -127 -15 -305 -11 -300 8 -473 35 -770 123 -27 8
-63 19 -80 24 -141 41 -534 221 -665 305 -171 109 -219 142 -289 199 -258 206
-443 458 -502 683 -54 207 -37 461 42 627 116 245 333 365 654 366 88 0 139
-6 190 -20 39 -10 90 -24 115 -31 25 -7 70 -25 101 -40 82 -42 140 -40 184 4
70 70 55 154 -37 206 -62 36 -204 89 -251 94 -17 2 -44 9 -59 15 -36 15 -353
62 -420 62 -56 0 -256 23 -347 40 -62 11 -124 39 -175 78 -19 15 -46 34 -58
43 -13 9 -39 47 -58 85 -33 65 -35 74 -35 169 0 91 3 105 29 157 36 71 132
165 206 202 71 36 127 46 285 55 125 6 132 8 181 39 63 41 115 109 145 187 19
51 23 79 22 182 0 114 -2 126 -28 178 -21 41 -35 57 -54 61 -14 3 -36 10 -49
15 -32 13 -88 -15 -113 -55 -18 -28 -19 -44 -14 -156 6 -114 5 -128 -14 -157
-31 -49 -64 -66 -132 -67 -57 -1 -62 1 -89 34 -50 60 -63 119 -55 240 13 189
92 375 213 502 72 75 162 139 228 162 24 9 65 23 91 33 65 22 124 80 146 141
9 27 17 57 17 67 0 25 29 153 47 205 39 112 127 274 184 334 16 17 29 34 29
38 0 10 119 101 170 130 73 42 176 69 320 84 169 18 318 55 440 109 145 65
216 109 364 225 38 30 70 38 80 21 3 -5 6 -60 7 -124 1 -137 10 -182 41 -214
33 -33 74 -42 128 -29 39 10 48 17 68 56 19 38 21 54 16 102 -10 91 14 321 44
408 32 95 60 140 134 213 43 42 83 69 146 98 48 22 94 44 103 49 9 5 36 14 60
20 24 6 94 40 154 74 96 55 153 83 292 142 55 23 274 73 358 81 133 13 364 15
470 3z m5945 -6924 c0 -2 -7 -22 -14 -44 -8 -23 -18 -81 -22 -129 -3 -48 -13
-106 -20 -128 -8 -22 -21 -86 -29 -143 -8 -56 -21 -115 -29 -130 -8 -15 -20
-68 -26 -118 -6 -49 -13 -106 -17 -126 -7 -48 16 -60 55 -31 35 26 177 93 197
93 8 0 43 11 77 24 54 21 194 46 263 48 11 0 60 -5 108 -13 85 -12 89 -14 131
-59 116 -124 65 -330 -141 -575 -184 -218 -473 -498 -676 -655 -225 -174 -276
-215 -347 -280 -173 -158 -330 -322 -416 -434 -32 -43 -74 -96 -91 -119 -18
-23 -39 -56 -47 -73 -8 -17 -19 -35 -25 -38 -6 -4 -20 -24 -31 -44 -12 -20
-34 -57 -50 -82 -16 -25 -38 -63 -49 -85 -11 -22 -25 -47 -30 -55 -5 -8 -28
-53 -51 -100 -46 -94 -80 -149 -94 -150 -8 0 -7 14 14 114 13 63 57 174 81
205 11 13 19 29 19 36 0 17 58 121 75 135 8 7 15 18 15 25 0 8 10 26 23 42 13
15 36 49 51 75 43 76 313 392 437 514 166 162 302 284 317 284 4 0 28 20 53
43 25 24 61 54 80 67 19 13 50 39 69 57 19 18 38 33 42 33 5 0 32 24 62 53 29
28 105 102 167 163 132 128 259 260 259 269 0 4 18 27 39 53 100 119 169 251
177 337 7 81 -6 103 -77 128 -56 20 -59 20 -175 2 -67 -10 -142 -28 -173 -41
-29 -13 -61 -24 -70 -24 -26 0 -316 -142 -376 -184 -37 -26 -22 -17 -278 -173
-29 -17 -83 -50 -122 -72 -38 -23 -95 -57 -125 -76 -30 -19 -111 -67 -180
-106 -69 -39 -165 -95 -215 -125 -49 -29 -108 -63 -130 -74 -43 -23 -85 -46
-220 -125 -47 -27 -103 -59 -124 -70 -22 -11 -47 -27 -57 -36 -11 -9 -31 -23
-46 -30 -15 -8 -77 -42 -138 -76 -61 -35 -113 -63 -116 -63 -3 0 -42 -22 -88
-50 -46 -27 -87 -50 -92 -50 -5 0 -25 -11 -44 -24 -19 -13 -45 -26 -58 -30
-12 -4 -50 -24 -85 -45 -34 -21 -98 -57 -142 -81 -44 -23 -92 -51 -107 -61
-14 -11 -28 -19 -31 -19 -7 0 -159 -95 -200 -125 -15 -11 -43 -31 -62 -45 -19
-14 -51 -36 -70 -50 -20 -14 -76 -57 -123 -96 -48 -38 -94 -74 -104 -80 -19
-11 -215 -200 -273 -265 -156 -172 -239 -293 -344 -504 -61 -124 -121 -293
-121 -344 0 -16 -7 -64 -16 -106 -20 -95 -14 -225 14 -345 11 -47 28 -119 38
-160 16 -67 17 -131 17 -625 0 -516 -2 -556 -21 -655 -12 -58 -26 -153 -31
-211 -6 -58 -15 -118 -21 -133 -5 -15 -17 -89 -25 -164 -9 -75 -22 -166 -30
-202 -8 -36 -17 -105 -20 -155 -4 -49 -15 -126 -25 -170 -11 -44 -24 -132 -30
-195 -5 -63 -17 -142 -25 -175 -8 -33 -20 -111 -25 -173 -5 -63 -16 -137 -24
-165 -8 -29 -20 -106 -25 -172 -6 -66 -18 -145 -26 -175 -9 -30 -18 -92 -22
-137 -3 -45 -10 -87 -14 -95 -7 -10 -93 -15 -411 -21 -222 -4 -459 -6 -528 -5
l-125 3 -17 80 c-9 44 -24 148 -33 230 -9 83 -23 177 -30 210 -8 33 -17 98
-20 145 -4 47 -16 119 -26 160 -10 41 -23 127 -29 190 -6 63 -15 131 -20 150
-5 19 -16 94 -25 165 -9 72 -23 157 -30 190 -7 33 -19 109 -25 170 -6 60 -18
137 -25 170 -8 33 -19 113 -25 177 -5 64 -17 143 -25 175 -18 76 -33 269 -43
578 -10 295 -9 389 7 630 14 230 18 257 43 330 18 53 20 83 19 257 -1 184 -2
202 -26 270 -14 39 -25 81 -25 93 0 11 -9 38 -20 60 -11 21 -25 54 -31 74 -11
32 -46 102 -98 196 -10 17 -39 64 -67 105 -153 231 -287 374 -559 595 -34 28
-81 66 -106 86 -47 39 -296 209 -305 209 -3 0 -33 19 -67 43 -34 24 -98 63
-142 86 -44 24 -84 47 -90 51 -5 4 -71 39 -145 77 -195 101 -302 159 -412 224
-53 32 -114 67 -135 79 -21 11 -58 34 -83 50 -25 16 -64 39 -88 50 -24 11 -67
35 -95 54 -29 18 -65 40 -82 48 -16 9 -67 37 -112 64 -103 61 -138 81 -305
172 -73 41 -142 81 -153 91 -33 28 -98 69 -123 76 -13 4 -43 20 -67 36 -24 16
-68 44 -99 62 -53 31 -150 92 -239 149 -23 15 -60 36 -82 47 -22 10 -46 26
-54 35 -7 9 -18 16 -25 16 -6 0 -33 11 -61 24 -57 28 -140 63 -235 100 -138
54 -302 74 -380 48 -39 -13 -80 -65 -80 -101 0 -38 56 -166 119 -269 65 -107
356 -417 533 -569 197 -168 224 -191 351 -291 46 -37 262 -237 342 -317 59
-59 236 -260 282 -321 49 -63 162 -234 179 -269 8 -16 28 -52 43 -80 48 -84
90 -174 102 -218 6 -23 16 -48 21 -54 6 -7 13 -42 16 -78 4 -54 2 -65 -11 -65
-10 0 -22 18 -32 50 -9 27 -21 52 -26 55 -5 4 -32 52 -60 108 -57 115 -88 171
-139 249 -19 30 -39 61 -45 70 -12 19 -112 164 -125 181 -87 114 -431 469
-510 526 -205 150 -563 455 -727 620 -146 146 -310 346 -354 432 -10 21 -23
40 -28 43 -5 4 -13 20 -16 38 -4 17 -16 45 -26 62 -29 48 -25 115 11 183 17
32 38 66 48 77 26 29 92 56 139 56 23 0 54 5 68 12 19 8 31 8 51 -1 15 -6 71
-16 125 -21 60 -6 114 -17 136 -28 21 -11 54 -22 74 -26 21 -4 42 -13 49 -21
6 -8 28 -19 48 -26 20 -6 51 -20 68 -30 54 -32 64 -26 64 36 0 30 -8 76 -19
102 -10 26 -22 82 -25 123 -4 41 -16 109 -26 150 -30 124 -34 169 -15 176 22
9 72 -14 95 -44 12 -14 20 -40 20 -62 0 -21 9 -66 19 -101 11 -35 22 -98 26
-139 4 -41 15 -106 25 -145 11 -38 22 -98 26 -133 8 -78 24 -93 189 -176 63
-32 131 -69 151 -82 19 -13 38 -24 41 -24 4 0 23 -11 42 -24 20 -13 47 -27 60
-31 22 -7 23 -5 17 21 -3 16 -11 54 -17 84 -6 30 -18 68 -26 84 -9 16 -19 63
-24 103 -5 40 -19 88 -30 107 -13 22 -23 64 -28 113 -5 43 -13 88 -18 98 -14
27 -23 129 -13 145 7 11 16 11 50 1 47 -14 60 -37 60 -109 0 -27 7 -57 16 -70
9 -13 22 -62 30 -109 7 -48 22 -110 33 -137 33 -89 71 -210 71 -226 0 -8 11
-35 24 -60 13 -25 26 -58 30 -74 4 -16 19 -44 33 -62 25 -33 136 -114 203
-149 19 -10 46 -26 60 -37 56 -43 196 -128 236 -145 23 -10 50 -30 59 -45 18
-31 48 -38 43 -11 -2 10 -16 24 -31 31 -22 10 -26 17 -17 27 15 19 -29 116
-64 139 -22 14 -26 23 -21 43 6 23 -11 70 -51 145 -32 60 -121 325 -129 388
-4 30 -14 73 -22 95 -8 22 -21 92 -29 155 -18 146 -24 140 147 140 69 0 151 5
180 10 116 22 259 42 364 50 61 4 184 24 275 44 91 20 215 48 276 61 179 40
242 33 509 -56 99 -33 227 -73 285 -89 58 -15 183 -49 279 -75 96 -25 220 -55
275 -66 56 -10 196 -41 311 -68 116 -28 264 -62 330 -76 136 -30 250 -61 409
-112 90 -28 145 -38 310 -54 111 -11 244 -25 296 -30 52 -5 156 -9 230 -8 74
2 261 -1 415 -6 298 -8 405 -1 845 56 479 63 649 109 1189 323 134 53 253 96
265 94 20 -3 21 -8 18 -77 -2 -40 -10 -92 -18 -114 -8 -22 -19 -72 -25 -111
-6 -39 -19 -98 -29 -131 -11 -33 -33 -104 -49 -157 -17 -53 -48 -132 -70 -175
-22 -43 -54 -112 -71 -153 -43 -103 -100 -219 -111 -225 -5 -4 -9 -13 -9 -21
0 -16 36 -19 45 -4 6 9 73 55 156 105 18 11 43 27 55 35 11 8 34 24 50 34 16
11 60 40 98 65 39 25 77 51 86 56 97 58 155 130 180 224 6 24 18 54 25 65 7
12 17 39 21 61 4 22 15 56 24 75 10 20 21 58 25 85 4 28 15 64 25 80 10 17 23
70 29 121 6 51 17 107 25 125 8 19 17 77 21 129 9 124 10 127 57 151 63 32 72
23 64 -72 -4 -45 -14 -99 -21 -120 -8 -22 -19 -81 -24 -132 -5 -51 -16 -108
-24 -127 -8 -19 -21 -71 -27 -115 -7 -44 -19 -92 -26 -107 -8 -15 -14 -44 -14
-65 -1 -21 -10 -63 -21 -93 -34 -93 -34 -90 -8 -90 12 0 30 6 38 14 19 17 81
51 181 100 41 21 86 43 100 51 14 7 43 22 65 33 22 11 55 33 72 48 31 28 33
34 43 139 6 61 18 130 26 155 8 25 19 94 24 153 6 59 17 124 25 145 8 20 21
88 29 149 21 158 59 223 128 223 16 0 28 -2 28 -4z"/>
<path d="M6650 22309 c-89 -13 -146 -43 -178 -92 -23 -35 -27 -51 -27 -113 0
-72 1 -74 40 -114 63 -65 87 -71 280 -74 113 -1 200 -8 260 -20 220 -43 387
-79 470 -103 50 -14 110 -31 135 -38 25 -6 74 -20 110 -30 105 -29 288 -91
510 -173 30 -11 67 -23 82 -26 34 -8 48 -44 22 -63 -10 -7 -23 -13 -30 -13
-13 0 -106 -43 -163 -76 -79 -45 -181 -127 -201 -161 -42 -71 -25 -142 43
-183 45 -28 78 -25 130 13 25 17 76 54 114 81 174 125 328 147 613 89 84 -17
168 -39 220 -58 124 -47 159 -62 194 -87 22 -15 43 -28 47 -28 15 0 284 -170
431 -271 476 -330 909 -744 1205 -1154 37 -53 189 -279 211 -315 64 -108 142
-252 142 -265 0 -7 6 -20 14 -27 14 -15 44 -75 99 -203 67 -155 65 -159 -65
-169 -160 -11 -271 -50 -401 -141 -128 -90 -267 -264 -267 -336 0 -66 70 -139
133 -139 42 0 71 25 131 109 30 42 71 92 92 112 55 50 157 109 217 125 78 21
190 18 236 -5 53 -27 108 -92 121 -143 6 -24 18 -63 25 -88 14 -43 36 -149 69
-330 29 -160 48 -375 55 -620 6 -244 6 -245 33 -292 22 -36 38 -50 72 -63 69
-27 132 -9 219 60 60 48 68 90 69 376 2 536 -72 964 -251 1449 -66 179 -102
264 -112 268 -5 2 -9 10 -9 17 0 25 -140 302 -220 435 -53 88 -72 144 -71 214
1 77 25 122 85 163 64 44 116 58 205 55 84 -3 130 -21 225 -89 75 -55 127 -59
180 -13 89 78 43 187 -119 279 -96 55 -157 73 -263 79 -110 5 -204 -11 -287
-49 -67 -30 -185 -113 -185 -130 0 -5 -11 -16 -25 -25 -39 -25 -69 -11 -130
64 -106 129 -148 178 -249 287 -246 265 -571 553 -884 784 -166 122 -487 333
-586 385 -27 14 -54 30 -60 35 -6 5 -45 27 -86 49 -41 22 -122 65 -178 96 -57
31 -109 56 -117 56 -7 0 -23 8 -36 18 -22 17 -170 91 -249 125 -19 8 -61 27
-92 41 -31 14 -59 26 -62 26 -5 0 -80 33 -161 71 -11 5 -33 13 -50 18 -16 6
-68 24 -115 41 -101 38 -291 101 -375 125 -33 9 -71 20 -85 25 -31 11 -329 83
-433 105 -193 42 -578 65 -717 44z"/>
<path d="M9895 22220 c-226 -40 -408 -173 -476 -347 -32 -83 -40 -208 -16
-250 25 -43 41 -55 90 -63 51 -10 98 7 122 44 9 14 20 54 25 89 17 143 98 224
257 262 149 36 295 1 364 -86 41 -52 82 -73 132 -66 78 11 122 86 98 168 -15
48 -120 157 -181 187 -115 55 -297 82 -415 62z"/>
<path d="M5920 21584 c-170 -20 -217 -28 -300 -49 -217 -55 -416 -158 -596
-307 -217 -179 -405 -443 -484 -678 -26 -78 -25 -108 5 -152 24 -36 31 -40 87
-52 49 -11 105 34 140 112 115 257 196 377 358 526 185 172 411 284 670 332
98 18 366 15 460 -5 149 -33 288 -86 425 -164 118 -67 139 -83 265 -208 94
-94 132 -143 236 -304 45 -71 118 -290 138 -417 28 -174 18 -394 -25 -566
l-22 -84 30 -41 c21 -30 41 -46 72 -56 65 -21 105 1 161 90 25 38 57 89 73
113 38 60 208 234 287 293 64 49 231 153 244 153 4 0 28 10 54 21 213 97 530
142 747 105 141 -24 282 -59 331 -84 11 -5 44 -21 74 -35 83 -40 239 -136 289
-176 68 -56 199 -191 233 -241 17 -25 39 -54 49 -65 9 -11 44 -69 78 -130 62
-113 124 -282 136 -370 4 -27 11 -63 16 -80 4 -16 12 -93 17 -170 6 -89 14
-149 23 -163 20 -32 93 -66 125 -58 94 24 123 105 104 290 -5 54 -13 103 -17
110 -4 6 -6 20 -5 31 6 47 -69 307 -128 440 -109 245 -343 518 -582 677 -295
197 -539 275 -888 284 -196 5 -312 -8 -495 -54 -193 -49 -479 -205 -633 -344
-43 -39 -75 -46 -78 -18 -16 141 -29 226 -41 275 -22 90 -63 216 -83 255 -10
19 -33 66 -51 104 -142 304 -434 578 -784 739 -167 77 -548 141 -715 121z"/>
<path d="M3810 20573 c-35 -24 -46 -39 -84 -113 -51 -99 -88 -238 -107 -395
-14 -117 3 -331 32 -415 10 -30 19 -63 19 -75 0 -27 106 -235 156 -306 92
-132 249 -281 380 -363 72 -45 259 -126 338 -146 167 -43 330 -55 486 -36 160
20 259 40 306 63 21 11 51 23 65 26 39 10 206 105 277 160 36 26 72 47 81 45
10 -2 21 -21 28 -48 16 -62 103 -253 159 -346 139 -236 363 -444 618 -574 141
-72 209 -96 368 -132 90 -20 130 -23 318 -23 211 0 217 1 335 33 118 32 278
96 385 155 101 56 253 176 336 266 68 73 82 74 105 4 20 -63 87 -199 119 -244
17 -24 41 -60 54 -79 119 -180 394 -365 651 -438 217 -62 484 -54 712 23 71
24 234 104 264 131 8 8 20 14 25 14 5 0 28 18 51 39 73 68 68 159 -11 206 -24
14 -54 25 -67 25 -21 0 -91 -39 -179 -100 -14 -9 -37 -21 -50 -25 -14 -4 -38
-15 -55 -25 -38 -22 -178 -60 -270 -71 -126 -17 -317 6 -435 51 -62 24 -196
95 -223 118 -9 8 -27 20 -39 26 -12 6 -64 58 -115 115 -77 87 -103 124 -153
226 -67 136 -100 268 -100 400 0 85 -20 130 -70 157 -73 40 -129 7 -201 -116
-101 -173 -216 -297 -410 -445 -40 -31 -185 -101 -264 -128 -114 -39 -173 -52
-306 -65 -169 -15 -328 4 -532 67 -57 17 -230 112 -307 169 -99 72 -256 236
-307 321 -90 148 -108 184 -148 295 -33 90 -75 275 -75 331 0 14 -9 34 -20 44
-11 10 -20 23 -20 28 0 21 -37 36 -89 37 -52 0 -56 -2 -90 -42 -220 -256 -398
-365 -675 -414 -353 -62 -704 55 -947 314 -71 75 -179 228 -179 251 0 7 -7 25
-15 41 -8 15 -26 81 -40 145 -51 237 -24 466 79 660 33 62 15 133 -43 172 -40
27 -87 29 -121 6z"/>
<path d="M5478 18183 c-15 -10 -37 -36 -50 -59 -21 -41 -21 -42 -5 -127 10
-51 17 -134 17 -205 0 -180 -33 -294 -126 -437 -52 -80 -73 -104 -149 -167
-21 -18 -46 -39 -55 -46 -30 -26 -115 -82 -140 -93 -14 -6 -52 -24 -85 -40
-77 -36 -286 -105 -395 -129 -172 -38 -352 -54 -600 -54 -148 1 -270 7 -330
16 -118 17 -169 9 -205 -33 -19 -24 -25 -42 -25 -80 0 -117 44 -133 425 -160
321 -22 672 19 995 117 169 52 368 145 463 218 25 19 55 39 67 46 79 42 299
307 317 380 3 14 11 32 17 40 19 24 54 147 72 250 29 166 4 444 -46 526 -33
52 -110 69 -162 37z"/>
<path d="M12124 22940 c-21 -16 -55 -41 -75 -54 -45 -30 -79 -72 -79 -97 0
-28 40 -59 75 -59 32 0 49 10 153 84 47 34 52 41 52 76 0 30 -6 43 -26 59 -36
28 -54 26 -100 -9z"/>
<path d="M9775 6359 c-44 -4 -156 -13 -250 -18 -93 -6 -235 -15 -315 -21 -409
-28 -597 -42 -720 -51 -74 -6 -241 -17 -370 -24 -225 -13 -367 -23 -675 -46
-77 -6 -207 -15 -290 -20 -82 -5 -172 -13 -200 -18 -27 -6 -106 -13 -175 -16
-69 -3 -195 -10 -280 -16 -85 -5 -265 -16 -400 -24 -479 -29 -507 -34 -577
-107 -133 -139 -76 -372 107 -433 50 -17 66 -17 294 -1 133 9 300 21 371 27
72 5 234 16 360 24 293 18 514 33 685 46 74 6 203 14 285 19 83 5 240 16 350
24 408 32 622 46 685 46 36 0 121 7 190 14 69 8 195 17 280 21 85 3 227 12
315 20 88 8 243 19 345 25 358 20 403 29 477 98 52 48 75 106 76 186 0 54 -5
81 -22 114 -32 63 -93 118 -145 131 -50 12 -279 13 -401 0z"/>
<path d="M9895 5640 c-71 -5 -222 -16 -335 -24 -295 -23 -609 -45 -725 -51
-55 -3 -147 -10 -205 -15 -58 -5 -199 -14 -313 -20 -115 -5 -213 -12 -218 -15
-5 -4 -125 -12 -266 -20 -142 -8 -312 -19 -378 -25 -66 -5 -196 -14 -290 -20
-93 -6 -228 -15 -300 -20 -252 -18 -582 -41 -780 -55 -110 -8 -249 -18 -310
-21 -163 -10 -241 -49 -289 -146 -49 -99 -30 -232 44 -306 64 -64 100 -76 240
-74 69 0 213 8 320 16 211 17 418 31 685 46 94 6 251 17 350 25 99 8 234 17
300 20 66 3 192 12 280 20 88 8 237 19 330 25 94 6 265 17 380 25 116 8 289
19 385 25 96 5 225 15 285 20 61 6 196 15 300 20 105 5 235 14 290 20 55 5
179 14 276 20 207 11 261 26 326 92 55 56 73 102 73 185 0 80 -22 134 -72 185
-72 72 -140 84 -383 68z"/>
<path d="M9815 4905 c-66 -8 -205 -18 -310 -24 -104 -6 -242 -15 -305 -21 -63
-6 -257 -19 -430 -30 -173 -11 -369 -25 -435 -30 -66 -6 -208 -15 -315 -20
-107 -6 -229 -15 -270 -20 -41 -5 -142 -12 -225 -15 -82 -3 -213 -12 -290 -20
-77 -8 -201 -17 -275 -20 -74 -3 -175 -10 -225 -16 -85 -8 -147 -12 -610 -39
-499 -29 -566 -47 -633 -175 -22 -42 -26 -62 -25 -122 3 -111 47 -185 138
-232 59 -30 113 -34 275 -21 152 12 282 21 590 39 102 6 259 18 350 26 91 8
230 17 310 20 80 3 195 10 255 15 161 15 518 41 687 50 81 5 166 11 190 15 41
5 285 21 703 45 105 6 240 15 300 21 61 5 198 14 305 20 107 5 247 16 310 24
63 8 145 15 181 15 89 0 161 23 211 68 144 129 106 361 -72 441 -54 25 -194
27 -385 6z"/>
<path d="M10025 4189 c-33 -4 -145 -13 -250 -19 -104 -5 -233 -15 -285 -20
-52 -5 -133 -12 -180 -15 -238 -14 -568 -36 -675 -45 -66 -5 -199 -14 -295
-20 -96 -5 -260 -17 -365 -25 -104 -8 -264 -20 -355 -25 -201 -12 -420 -27
-600 -41 -74 -6 -234 -16 -355 -24 -121 -7 -285 -18 -365 -24 -80 -6 -206 -15
-280 -21 -74 -5 -182 -13 -240 -16 -70 -4 -120 -13 -150 -26 -211 -91 -214
-385 -5 -484 57 -27 133 -31 288 -14 51 5 200 17 332 25 245 16 422 27 670 45
77 6 214 15 305 20 91 6 226 15 300 21 74 6 227 17 340 24 262 17 474 32 620
45 63 5 198 14 300 20 102 5 208 12 236 15 29 4 161 13 295 20 312 18 784 53
829 60 90 16 163 66 202 139 32 61 31 187 -2 242 -49 83 -107 126 -185 139
-22 4 -47 8 -55 9 -8 2 -42 -1 -75 -5z"/>
<path d="M10070 3363 c-62 -3 -462 -28 -680 -43 -80 -5 -228 -14 -330 -20
-102 -6 -270 -17 -375 -25 -104 -9 -266 -20 -360 -25 -93 -5 -271 -17 -395
-25 -297 -20 -804 -52 -1115 -70 -137 -8 -293 -19 -345 -24 -52 -5 -176 -13
-275 -16 -282 -10 -362 -30 -403 -104 -24 -43 -29 -111 -11 -174 23 -82 156
-233 644 -727 736 -745 697 -709 818 -749 64 -22 65 -22 773 -13 784 10 739 6
847 77 27 18 126 119 233 240 279 314 325 365 375 420 51 56 576 645 685 770
137 155 170 208 184 294 14 85 -19 160 -88 195 -32 16 -104 23 -182 19z"/>
<path d="M359 450 c30 -17 62 -37 70 -44 17 -15 127 -66 143 -66 5 0 8 30 6
68 l-3 67 -135 2 -135 3 54 -30z"/>
</g>
</svg>
